<?xml version="1.0" encoding="UTF-8"?>
<svg version="1.1" viewBox="0 0 2048 1153" width="3113" height="1754" xmlns="http://www.w3.org/2000/svg">
<path transform="translate(1272,567)" d="m0 0h53l31 1h15l10 4 4 3 3 6 3 12 3 5 6 3 12 2 9 6 4 7v11l-4 6-6 5-4 2-13 2-6 5-2 3-2 11h-2l-1 5-7 4h-2v2l-7 1-5-1-5-3-3-1-5-7-1-6 3-9 4-5 9-4 11-2 6-5 2-7v-6l-3-5v-2l-5-2-6-2h-78l-23-1-13 1-4 3h-2l-1 3h-2l-3 16-1 1 2 1-1 5 1 29-1 6v3l1 9-2 3h2v10l2 1 4 5 1 2 8 3 9 1 6 5 3 3 4 16 2 4 4 2 5 2 14 1 4 1 4-1h28l4-2 2-8v-7l-3-8-3-3v-2l-7-1-12-3-8-7-2-5v-10l4-6 4-4 4-2h13l7 5 5 8 3 10 1 5 10 5 12 3 6 5v4h2l2 4v8l1 5v24l-2 9-6 7-5 2-6 1h-73l-9-3-6-5-3-6-3-15h-2v-2l-11-3-9-2-8-7-2-7-3-8v-2l-5-5-7-3-9-3v-2h-4l-4-4-2-1-3-6v-2h-2v-2h2v-2l-4 1-1 2h-2l1 4-2 10v27l1 2h-2l2 9v21l-3 6-7 6-5 2h-9l-8-4-5-4-3-9v-50l-3-1h-78l-13-2-8-5v-2h-2l-2-4v-12l4-6 4-4 6-3h91l2-11-2-10-3-5v-2l-6-2-6-1-9-2-6-5-4-7-2-12-2-4-5-2-7-2h-74l-8 3-4 4-2 4v104l-1 26v15l-2 5-6 7-7 3h-10l-7-4-5-6-2-5v-143l3-9h2l1-3 7-4 12-2 6-4 3-4 3-12 5-8 6-4 4-1h81l8 4 5 8 2 13 1 4 10 5 9 1 1 3 6 1 4 6 2 4 1 6 2 3 2 5 5 3 1 2 8 1 8 3v2h4v2l3 3v3l4 1 3 6 3-5 1-11-1-3v-3h2l-1-7v-7h2v-5l4-7 4-4 7-2 4-1 8-1 2-4h2l1-4 2-11 5-9 10-5zm-70 92-1 4v4l1 2h2l2-3v-4l1-3zm4 7m-1 3m-3 1-1 10 2 4 2-1 2-6-2-2-1-5zm-3 6m0 9-1 2 3-1z" fill="#FEFEFE"/>
<path transform="translate(850,570)" d="m0 0h75l7 3 6 7 4 15 2 4 5 3 12 2 10 6 4 8v41l-4 9-7 6-18 5-5 6-3 14-3 5-4 4 4 7 3 4 3 12v3h2l4 4 4 2 12 2 8 5 4 8v11l-5 8-6 4-4 1h-8l-7-2-5-4-4-8-3-14-6-5-14-4-7-4-6-12-3-9-6-5-12-3-9-5-4-7v-10l1-3h2l1-4 3-1v-2h2v-2l8-2 10-1 32-1 7-4 3-9v-23l-1-17-4-6-5-3-21-1h-64v2l-3 1-4 7-2 5 1 2-2 4 2 1-1 7v3 32l1 3-1 4v8l1 5h-2l1 6 1 25v40l-4 8-5 5-4 2h-14l-7-4-4-5-2-7v-86l1-2-2-1 1-5h-3v-2h-3l1 2v29l-3 7-4 5-9 4-9 1-3 2h-3l-2 4-4 10-1 5h-2l-1 4-2 3-10 4-6 1-2-1-1 3-5 1-2 5-1 3h-2l1 4-5 10h-2v3h-3l-1 3h-4v2l-7 1-3-1-10 1h-52l-12-2-2-1v-2l-4-1-2-2-3-6 1-4h-2l-2-7-2-1-1-3-2-1v-2l-4-1-10-3-10-4-2-6h-2l-1-17-1-100 1-31 5-8 6-4 8-2 10 2 4 5v3l3 1v4h2v2h-2v2h2l1 3-1 4v7l1 2-1 14v32l1 4-1 22 1 49 3 8 1 3 4 2 9 2h20l13 2v-2h15l4 1 18-1 10-3 5-5 5-15h2v-3h2l1-3 3-1 1-2 17-5 4-3 2-5 1-17-1-37v-21l-3-8-3-3-4-2-15-1h-55l-13-2-8-4-3-5-2-8 1-2v-4h2l2-7 3-1 1-2 8-2 18-1h56l9 3 8 9 3 12 4 6 6 4 10 2 9 5 4 7 3 3v3h2l2-4-1-2 4-2 2-6 4-3 7-4 4-1 7-1 3-1v-2l4-1 6-20 1-2h2l2-4 5-2zm-60 58m1 12m-4 1 1 6 2-1-1-5zm0 6m1 3 1 3v-3zm0 9v2h2v-2zm-1 3-1 2 4 1v-3z" fill="#FEFEFE"/>
<path transform="translate(889,303)" d="m0 0 35 1 23-1h20l10 4 6 7 4 15 5 5 9 3 9 2 7 6 3 6 1 16v4l18 1 10 5 5 5 2 7 1 41-1 33-3 5-6 7-7 2-11 1-10-1-8 1-7-1-10 1h-6l-2 1-8-1h-24l-3-1-2 1h-18l-11-3-7-5-2-9-4-9-3-5-9-3-10-2-7-6-3-5-3-13-4-5-7-3-12-4-5-2-2-3v-3l-3 1v-4l-6-1v2l2 2-3 1v11h-2l1 6v5l1 2-1 7 2 15 3 5 11 4 9 2 6 5 4 8 2 5 1 5 4 4v2l5 2v2l3-1 17 1h2 90l10 3 2 1v2l4 2 3 4 1 3v8l-4 8-5 4-5 2-18 1-50-1-2-1-3 1h-11l-22-1h-8l-9-4-4-2v-2h-2l-2-5-1-11-3-1-2-4-5-3-15-3-7-5-3-5-3-14-4-5-8-3-10-2-8-6-3-8-1-4v-14l1-5v-44l-1-12v-29l5-10 5-4 8-2h8l8 5 4 5 2 10v14l-1 3v6h2l2 6 2-3 1-46 4-8 7-5 5-1zm18 37-27 1-2 1-1 9v18l2 3 20 1 9 5 4 8 2 11 6 7 8 3 11 3 7 9 1 9 1 8 6 4 9 1h50l3-1 1-2v-52l-4-6-4-3-16-4-5-4h-2l-2-4-2-5-2-10-6-7-5-2-25-1zm-73 30-2 6h2v-2h2l1-3zm2 6 1 2 2-2zm-1 2m-3 4 1 3 2-2zm3 8 1 2z" fill="#FEFEFE"/>
<path transform="translate(708,317)" d="m0 0 56 1 8 1 8 3 5 7 1 4v9l-2 3h-2l-2 5-9 4h-13l-5 2-5-2-5 1-21-1-4 1h-8l-6-1-27 1-21 1-6 3-4 4-4 16-7 8-9 3-10 2-5 4-2 5v7l3 6 5 4 3 1 108 1h30l13 1 9 5 6 8 1 4-2 9-7 8-8 3-10 2-6 5-4 15-4 6-3 3-8 3-10 2-6 4-3 8-2 9-3 5-8 5-3 1h-96l-6-1-6 1-9-1-9-5-4-8-1-8 4-8 8-6 15-1h30l25-1 50-1 5-3h2l2-6 5-16 1-3-86-1-14-2-4-2-6-8-3-13-2-5-10-4-10-2-8-5-4-8v-9l4-8 7-5 14-3 6-4 3-6 2-11 2-4 8-6 13-3 7-3 4-6 2-11 8-9 4-2 14-1h14z" fill="#FEFEFE"/>
<path transform="translate(1256,300)" d="m0 0h11l8 4 5 6 2 9-1 113v11l-1 16-4 8-5 4-4 2h-8v2l-8 2-4 8v2h-2l-1 8-3 4-2 4-8 4h-11l-5-3-3-3v-2h-2l-4-13-4-5-3-3v-2l-10-2-9 2v2l-4 1-5 20-7 7-7 3h-44l-10-6-4-8-2-10-4-6-5-3-12-2-6-4-5-6-2-8v-64l2-11 4-7 7-4 18-4 2-6h2l2-12 3-5 4-2 1-3 9-3 7-2 4-2 6-7 2-10 3-6 8-6 10-1 7 2 8 10 1 6-2 8-3 4-4 1-1 3-7 2-9 2-4 2-3 5h-2v7l-6 12-7 5-13 3-6 4-3 6-1 3v25l2 50 3 5 7 4h46l4-2 1-2h2l2-6 1-4v-32l2-10 4-6 9-5h9l8 3 6 7 1 2v42l3 7 6 5 11 2 4-2 2 1 2-4h2l2-6 2-7-1-13v-126l5-8 4-4z" fill="#FEFEFE"/>
<path transform="translate(579,813)" d="m0 0h18v3l3 1v2h3v6h-6v-3h-3v-3h-12v3h-3v3h3v3h15v3h3v3h3v11h-3v3h-3v3h-18v-3h-3v-3h-3v-5l1-1h5v3l3 1v2h12v-3h3v-6h-3v-2h-14l-1-3-3-1v-2l-3-1v-8h3l1-3h2z" fill="#FEFEFE"/>
<path transform="translate(665,813)" d="m0 0h20v3h3v3h3v3h3v21h-3v2h-3v3h-3v3h-20zm6 6-1 1v25h12v-2h3v-3h3v-16h-3v-2h-3v-3z" fill="#FEFEFE"/>
<path transform="translate(715,813)" d="m0 0h15v3l3 1v2h2v6h3v14l-2 1-1 5h-2l-1 3h-2v3h-15v-3h-3v-3h-3l-1-5-2-1v-14h3v-6h3v-3h3zm3 6v3h-3l-1 5-2 1v9h3v6h3v2h9v-2l3-1v-5l3-1v-8h-3v-6h-3v-3z" fill="#FEFEFE"/>
<path transform="translate(635,813)" d="m0 0h6v30h3v2h9v-2l2-1 1-29h5v32l-3 3h-2v3h-15v-3h-3v-3h-3z" fill="#FEFEFE"/>
<path transform="translate(603,813)" d="m0 0h29v6h-12v32h-5l-1-31-11-1z" fill="#FEFEFE"/>
<path transform="translate(697,813)" d="m0 0h6v38h-6z" fill="#FEFEFE"/>
<path transform="translate(1204,678)" d="m0 0" fill="#FEFEFE"/>
<path transform="translate(1203,676)" d="m0 0" fill="#FEFEFE"/>
</svg>
