<?xml version="1.0" encoding="UTF-8"?>
<svg width="1600" height="900" viewBox="0 0 1600 900" fill="none" xmlns="http://www.w3.org/2000/svg">
  <defs>
    <linearGradient id="bg" x1="0" y1="0" x2="1600" y2="900" gradientUnits="userSpaceOnUse">
      <stop offset="0" stop-color="#08080C"/>
      <stop offset="0.6" stop-color="#12121A"/>
      <stop offset="1" stop-color="#08080C"/>
    </linearGradient>
    <radialGradient id="glow" cx="0" cy="0" r="1" gradientUnits="userSpaceOnUse" gradientTransform="translate(760 420) rotate(15) scale(760 520)">
      <stop offset="0" stop-color="#B34DFF" stop-opacity="0.45"/>
      <stop offset="0.5" stop-color="#FF4DA6" stop-opacity="0.22"/>
      <stop offset="1" stop-color="#000000" stop-opacity="0"/>
    </radialGradient>
    <pattern id="scan" width="8" height="8" patternUnits="userSpaceOnUse">
      <path d="M0 8 H8" stroke="#FFFFFF" stroke-opacity="0.05" stroke-width="1"/>
    </pattern>
  </defs>

  <rect width="1600" height="900" fill="url(#bg)"/>
  <rect width="1600" height="900" fill="url(#glow)"/>
  <rect width="1600" height="900" fill="url(#scan)"/>

  <!-- UI frames -->
  <g opacity="0.95">
    <rect x="170" y="170" width="580" height="560" rx="26" fill="#0E0E14" stroke="#FFFFFF" stroke-opacity="0.12"/>
    <rect x="210" y="220" width="500" height="22" rx="11" fill="#FFFFFF" fill-opacity="0.14"/>
    <rect x="210" y="260" width="260" height="14" rx="7" fill="#FFFFFF" fill-opacity="0.10"/>
    <rect x="210" y="286" width="360" height="14" rx="7" fill="#FFFFFF" fill-opacity="0.10"/>

    <rect x="860" y="170" width="570" height="280" rx="26" fill="#0E0E14" stroke="#FFFFFF" stroke-opacity="0.12"/>
    <rect x="860" y="480" width="570" height="250" rx="26" fill="#0E0E14" stroke="#FFFFFF" stroke-opacity="0.12"/>

    <!-- Accent chips -->
    <rect x="910" y="220" width="140" height="44" rx="22" fill="#1A1721" stroke="#6FE7D3" stroke-opacity="0.55"/>
    <text x="980" y="248" text-anchor="middle" font-family="system-ui, -apple-system, Segoe UI, Roboto, Arial" font-size="14" letter-spacing="3" fill="#FFFFFF" fill-opacity="0.86">TOKENS</text>

    <rect x="1068" y="220" width="160" height="44" rx="22" fill="#1A1721" stroke="#FFFFFF" stroke-opacity="0.16"/>
    <text x="1148" y="248" text-anchor="middle" font-family="system-ui, -apple-system, Segoe UI, Roboto, Arial" font-size="14" letter-spacing="3" fill="#FFFFFF" fill-opacity="0.75">COMPONENTS</text>

    <!-- Wave + nodes -->
    <path d="M230 560 C 360 480, 520 660, 650 560" stroke="#FFFFFF" stroke-opacity="0.16" stroke-width="4" fill="none"/>
    <circle cx="230" cy="560" r="7" fill="#6FE7D3" fill-opacity="0.9"/>
    <circle cx="440" cy="560" r="7" fill="#FF4DA6" fill-opacity="0.7"/>
    <circle cx="650" cy="560" r="7" fill="#B34DFF" fill-opacity="0.7"/>
  </g>

  <text x="130" y="105" font-family="system-ui, -apple-system, Segoe UI, Roboto, Arial" font-size="28" letter-spacing="6" fill="#DBA9A9">DIGITAL BRANDING</text>
  <text x="130" y="825" font-family="system-ui, -apple-system, Segoe UI, Roboto, Arial" font-size="14" letter-spacing="3" fill="#FFFFFF" fill-opacity="0.55">ORIGINAL SVG PLACEHOLDER • SAFE TO SHIP</text>
</svg>
