<?xml version="1.0" encoding="UTF-8"?>
<svg width="1600" height="900" viewBox="0 0 1600 900" fill="none" xmlns="http://www.w3.org/2000/svg">
  <defs>
    <linearGradient id="bg" x1="0" y1="0" x2="1600" y2="900" gradientUnits="userSpaceOnUse">
      <stop offset="0" stop-color="#0B0B0E"/>
      <stop offset="0.55" stop-color="#14121A"/>
      <stop offset="1" stop-color="#0B0B0E"/>
    </linearGradient>
    <radialGradient id="glow" cx="0" cy="0" r="1" gradientUnits="userSpaceOnUse" gradientTransform="translate(520 340) rotate(35) scale(720 520)">
      <stop offset="0" stop-color="#F7B36A" stop-opacity="0.85"/>
      <stop offset="0.55" stop-color="#EA5A3A" stop-opacity="0.35"/>
      <stop offset="1" stop-color="#000000" stop-opacity="0"/>
    </radialGradient>
    <pattern id="grid" width="40" height="40" patternUnits="userSpaceOnUse">
      <path d="M40 0H0V40" stroke="#FFFFFF" stroke-opacity="0.06" stroke-width="1"/>
    </pattern>
  </defs>

  <rect width="1600" height="900" fill="url(#bg)"/>
  <rect width="1600" height="900" fill="url(#glow)"/>
  <rect width="1600" height="900" fill="url(#grid)"/>

  <!-- Layout columns -->
  <g opacity="0.9">
    <rect x="130" y="140" width="460" height="620" rx="22" fill="#0E0E12" stroke="#FFFFFF" stroke-opacity="0.12"/>
    <rect x="630" y="140" width="840" height="620" rx="22" fill="#0E0E12" stroke="#FFFFFF" stroke-opacity="0.12"/>

    <!-- Left panel blocks -->
    <rect x="170" y="190" width="380" height="18" rx="9" fill="#FFFFFF" fill-opacity="0.18"/>
    <rect x="170" y="230" width="300" height="12" rx="6" fill="#FFFFFF" fill-opacity="0.12"/>
    <rect x="170" y="252" width="340" height="12" rx="6" fill="#FFFFFF" fill-opacity="0.12"/>
    <rect x="170" y="274" width="260" height="12" rx="6" fill="#FFFFFF" fill-opacity="0.12"/>

    <rect x="170" y="330" width="380" height="190" rx="18" fill="#15131B" stroke="#F7B36A" stroke-opacity="0.35"/>

    <rect x="170" y="550" width="180" height="52" rx="26" fill="#1A1721" stroke="#6FE7D3" stroke-opacity="0.55"/>
    <text x="260" y="584" text-anchor="middle" font-family="system-ui, -apple-system, Segoe UI, Roboto, Arial" font-size="16" letter-spacing="2" fill="#FFFFFF" fill-opacity="0.86">BRAND VOICE</text>

    <!-- Right panel hero shapes -->
    <circle cx="1040" cy="355" r="140" fill="#F7B36A" fill-opacity="0.16"/>
    <circle cx="1170" cy="395" r="220" fill="#EA5A3A" fill-opacity="0.10"/>
    <path d="M820 600 C 920 470, 1080 680, 1180 540 C 1250 440, 1400 480, 1450 380" stroke="#FFFFFF" stroke-opacity="0.18" stroke-width="3" fill="none"/>

    <rect x="690" y="610" width="250" height="16" rx="8" fill="#FFFFFF" fill-opacity="0.14"/>
    <rect x="690" y="640" width="420" height="12" rx="6" fill="#FFFFFF" fill-opacity="0.10"/>
    <rect x="690" y="662" width="380" height="12" rx="6" fill="#FFFFFF" fill-opacity="0.10"/>
  </g>

  <text x="130" y="105" font-family="system-ui, -apple-system, Segoe UI, Roboto, Arial" font-size="28" letter-spacing="6" fill="#DBA9A9">EDITORIAL BRANDING</text>
  <text x="130" y="825" font-family="system-ui, -apple-system, Segoe UI, Roboto, Arial" font-size="14" letter-spacing="3" fill="#FFFFFF" fill-opacity="0.55">ORIGINAL SVG PLACEHOLDER • SAFE TO SHIP</text>
</svg>
